<svg width="820" height="260" viewBox="0 0 820 260" fill="none" xmlns="http://www.w3.org/2000/svg">
  <defs>
    <linearGradient id="gear" x1="0" y1="0" x2="1" y2="1">
      <stop offset="0%" stop-color="#F8FBFF"/>
      <stop offset="45%" stop-color="#C7D2E0"/>
      <stop offset="100%" stop-color="#8FA8CC"/>
    </linearGradient>
    <linearGradient id="blue" x1="0" y1="0" x2="1" y2="1">
      <stop offset="0%" stop-color="#0A2A66"/>
      <stop offset="100%" stop-color="#2E5FA7"/>
    </linearGradient>
    <filter id="shadow" x="-20%" y="-20%" width="140%" height="140%">
      <feDropShadow dx="0" dy="6" stdDeviation="8" flood-color="#07122E" flood-opacity="0.3"/>
    </filter>
  </defs>

  <g filter="url(#shadow)">
    <circle cx="110" cy="92" r="52" fill="url(#blue)" stroke="url(#gear)" stroke-width="10"/>
    <g transform="translate(110 92)">
      <g fill="url(#gear)">
        <rect x="-8" y="-86" width="16" height="22" rx="3"/>
        <rect x="-8" y="64" width="16" height="22" rx="3"/>
        <rect x="64" y="-8" width="22" height="16" rx="3"/>
        <rect x="-86" y="-8" width="22" height="16" rx="3"/>
        <rect x="50" y="-58" width="16" height="22" rx="3" transform="rotate(45 58 -47)"/>
        <rect x="50" y="36" width="16" height="22" rx="3" transform="rotate(135 58 47)"/>
        <rect x="-66" y="36" width="16" height="22" rx="3" transform="rotate(-135 -58 47)"/>
        <rect x="-66" y="-58" width="16" height="22" rx="3" transform="rotate(-45 -58 -47)"/>
      </g>
      <circle r="70" stroke="url(#gear)" stroke-width="10" fill="none"/>
      <path d="M-18 20L6 -10L24 -3L6 26Z" fill="url(#gear)"/>
      <circle cx="-22" cy="20" r="8" fill="#0A2A66" stroke="url(#gear)" stroke-width="4"/>
      <circle cx="28" cy="-2" r="10" fill="#0A2A66" stroke="url(#gear)" stroke-width="4"/>
      <path d="M-10 13L18 -3" stroke="url(#gear)" stroke-width="8" stroke-linecap="round"/>
    </g>
  </g>

  <g fill="url(#gear)" opacity="0.95">
    <path d="M210 170C236 164 255 153 270 137C257 156 245 174 224 186C210 193 195 197 180 199C188 191 197 178 210 170Z"/>
    <path d="M203 188C225 184 246 178 265 168C249 183 231 194 210 201C196 205 182 207 170 207C180 201 190 193 203 188Z"/>
    <path d="M198 205C216 203 236 198 254 190C239 203 220 212 200 217C186 220 174 221 163 220C172 216 184 209 198 205Z"/>
    <path d="M610 170C584 164 565 153 550 137C563 156 575 174 596 186C610 193 625 197 640 199C632 191 623 178 610 170Z"/>
    <path d="M617 188C595 184 574 178 555 168C571 183 589 194 610 201C624 205 638 207 650 207C640 201 630 193 617 188Z"/>
    <path d="M622 205C604 203 584 198 566 190C581 203 600 212 620 217C634 220 646 221 657 220C648 216 636 209 622 205Z"/>
  </g>

  <text x="205" y="88" font-family="Arial, Helvetica, sans-serif" font-size="38" font-weight="800" fill="#0F172A">ALMACÉN Y TALLER</text>
  <text x="205" y="130" font-family="Arial, Helvetica, sans-serif" font-size="38" font-weight="800" fill="#0F172A">MOTOSERVICIO</text>
  <text x="300" y="214" font-family="Arial, Helvetica, sans-serif" font-size="78" font-weight="900" fill="url(#blue)">A&amp;R</text>
</svg>