<svg width="128" height="128" viewBox="0 0 128 128" fill="none" xmlns="http://www.w3.org/2000/svg">
  <defs>
    <linearGradient id="g1" x1="0" y1="0" x2="1" y2="1">
      <stop offset="0%" stop-color="#F8FBFF"/>
      <stop offset="45%" stop-color="#C7D2E0"/>
      <stop offset="100%" stop-color="#8FA8CC"/>
    </linearGradient>
    <linearGradient id="g2" x1="0" y1="0" x2="1" y2="1">
      <stop offset="0%" stop-color="#0A2A66"/>
      <stop offset="100%" stop-color="#2E5FA7"/>
    </linearGradient>
  </defs>
  <rect width="128" height="128" rx="28" fill="#07122E"/>
  <circle cx="64" cy="58" r="28" fill="url(#g2)" stroke="url(#g1)" stroke-width="6"/>
  <g fill="url(#g1)">
    <rect x="59" y="8" width="10" height="16" rx="2"/>
    <rect x="59" y="92" width="10" height="16" rx="2"/>
    <rect x="104" y="53" width="16" height="10" rx="2"/>
    <rect x="8" y="53" width="16" height="10" rx="2"/>
    <rect x="92" y="20" width="10" height="16" rx="2" transform="rotate(45 97 28)"/>
    <rect x="92" y="78" width="10" height="16" rx="2" transform="rotate(135 97 86)"/>
    <rect x="26" y="78" width="10" height="16" rx="2" transform="rotate(-135 31 86)"/>
    <rect x="26" y="20" width="10" height="16" rx="2" transform="rotate(-45 31 28)"/>
  </g>
  <circle cx="64" cy="58" r="38" stroke="url(#g1)" stroke-width="6" fill="none"/>
  <path d="M52 70L65 54L76 58L63 74Z" fill="url(#g1)"/>
  <path d="M58 65L72 56" stroke="url(#g1)" stroke-width="4" stroke-linecap="round"/>
  <text x="64" y="114" text-anchor="middle" font-family="Arial, Helvetica, sans-serif" font-size="24" font-weight="900" fill="url(#g1)">A&amp;R</text>
</svg>